<svg width="31" height="21" viewBox="0 0 31 21" fill="none" xmlns="http://www.w3.org/2000/svg">
<path d="M30.8798 10.0823C30.8347 9.98051 29.7428 7.55836 27.3155 5.13105C24.0813 1.8968 19.9962 0.1875 15.5 0.1875C11.0037 0.1875 6.9187 1.8968 3.68444 5.13105C1.25714 7.55836 0.160144 9.98438 0.120183 10.0823C0.0615476 10.2142 0.03125 10.357 0.03125 10.5013C0.03125 10.6456 0.0615476 10.7883 0.120183 10.9202C0.1653 11.0221 1.25714 13.4429 3.68444 15.8702C6.9187 19.1032 11.0037 20.8125 15.5 20.8125C19.9962 20.8125 24.0813 19.1032 27.3155 15.8702C29.7428 13.4429 30.8347 11.0221 30.8798 10.9202C30.9384 10.7883 30.9687 10.6456 30.9687 10.5013C30.9687 10.357 30.9384 10.2142 30.8798 10.0823ZM15.5 18.75C11.5323 18.75 8.06596 17.3075 5.19651 14.4639C4.01914 13.293 3.01746 11.9579 2.22264 10.5C3.01725 9.04199 4.01895 7.70683 5.19651 6.53613C8.06596 3.69246 11.5323 2.25 15.5 2.25C19.4677 2.25 22.934 3.69246 25.8035 6.53613C26.9831 7.70655 27.987 9.04171 28.7838 10.5C27.8544 12.2351 23.8054 18.75 15.5 18.75ZM15.5 4.3125C14.2762 4.3125 13.0799 4.67539 12.0624 5.35528C11.0449 6.03517 10.2518 7.00153 9.78348 8.13215C9.31517 9.26276 9.19263 10.5069 9.43138 11.7071C9.67013 12.9074 10.2594 14.0099 11.1248 14.8752C11.9901 15.7406 13.0926 16.3299 14.2929 16.5686C15.4931 16.8074 16.7372 16.6848 17.8678 16.2165C18.9985 15.7482 19.9648 14.9551 20.6447 13.9376C21.3246 12.9201 21.6875 11.7238 21.6875 10.5C21.6858 8.8595 21.0333 7.28667 19.8733 6.12666C18.7133 4.96665 17.1405 4.31421 15.5 4.3125ZM15.5 14.625C14.6841 14.625 13.8866 14.3831 13.2083 13.9298C12.5299 13.4766 12.0012 12.8323 11.689 12.0786C11.3768 11.3248 11.2951 10.4954 11.4542 9.69525C11.6134 8.89508 12.0063 8.16008 12.5832 7.58318C13.1601 7.00629 13.8951 6.61342 14.6952 6.45426C15.4954 6.2951 16.3248 6.37679 17.0786 6.689C17.8323 7.00121 18.4765 7.52992 18.9298 8.20827C19.3831 8.88663 19.625 9.68415 19.625 10.5C19.625 11.594 19.1904 12.6432 18.4168 13.4168C17.6432 14.1904 16.594 14.625 15.5 14.625Z" fill="#4F4F4F"/>
</svg>
