<svg width="16" height="16" viewBox="0 0 16 16" fill="none" xmlns="http://www.w3.org/2000/svg">
<path d="M14.8714 4.44543L11.5546 1.12934C11.4443 1.01904 11.3134 0.931547 11.1693 0.871852C11.0252 0.812158 10.8708 0.781433 10.7148 0.781433C10.5588 0.781433 10.4044 0.812158 10.2603 0.871852C10.1162 0.931547 9.98528 1.01904 9.87501 1.12934L0.723092 10.2813C0.612342 10.3911 0.524537 10.5219 0.46478 10.666C0.405024 10.8101 0.374508 10.9647 0.375006 11.1207V14.4375C0.375006 14.7524 0.500117 15.0545 0.722817 15.2772C0.945516 15.4999 1.24756 15.625 1.56251 15.625H14.0313C14.1887 15.625 14.3398 15.5624 14.4511 15.4511C14.5625 15.3397 14.625 15.1887 14.625 15.0313C14.625 14.8738 14.5625 14.7228 14.4511 14.6114C14.3398 14.5001 14.1887 14.4375 14.0313 14.4375H6.55891L14.8714 6.125C14.9817 6.01473 15.0692 5.88381 15.1289 5.73972C15.1886 5.59563 15.2193 5.44119 15.2193 5.28522C15.2193 5.12925 15.1886 4.97481 15.1289 4.83072C15.0692 4.68663 14.9817 4.55571 14.8714 4.44543ZM4.87934 14.4375H1.56251V11.1207L8.09376 4.58942L11.4106 7.90625L4.87934 14.4375ZM12.25 7.06684L8.93391 3.75L10.7152 1.96875L14.0313 5.28559L12.25 7.06684Z" fill="#B9B9B9"/>
</svg>
